<svg width="224" height="36" viewBox="0 0 224 36" fill="none" xmlns="http://www.w3.org/2000/svg">
<g clip-path="url(#clip0_403_257)">
<path d="M17.9986 5.53472L35.5997 0.349121L30.464 18.0001L35.5997 35.6012L17.9986 30.4655L0.347656 35.6012L5.53325 18.0001L0.347656 0.349121L17.9986 5.53472Z" fill="white"/>
</g>
<path d="M52.0077 26H41.0916V25.436L42.8018 24.0897V13.0644L40.9097 12.4276L41.2735 11.6999H51.8258L52.8083 11.3724V15.5569L52.2625 15.7388L50.0974 12.5186H45.076V18.2859H47.9324L49.2605 15.9572H49.8245V21.488L49.0968 21.8519L47.9506 19.1046H45.076V25.1813H50.0246L52.4444 21.5972L52.9902 21.7791V26.3275L52.0077 26ZM66.8073 26H63.3506V24.6901L61.6586 26.0364C61.2704 26.1334 60.8035 26.1819 60.2577 26.1819C59.4571 26.1819 58.7355 25.9757 58.0926 25.5634C57.4619 25.1388 56.9646 24.5688 56.6008 23.8532C56.249 23.1375 56.0731 22.3492 56.0731 21.488C56.0731 20.5541 56.3582 19.6808 56.9282 18.8681C57.4983 18.0434 58.2079 17.3884 59.0569 16.9032C59.918 16.4059 60.7489 16.1573 61.5494 16.1573C62.2165 16.1573 62.823 16.3453 63.3688 16.7213V12.9734L61.7495 11.8454V11.2814L64.8606 10.117H65.552V24.6355L67.1712 25.2723L66.8073 26ZM61.1855 24.6355C61.5494 24.6355 61.8951 24.587 62.2226 24.4899C62.5622 24.3808 62.9382 24.1806 63.3506 23.8895V19.7414C63.2778 19.135 62.9928 18.6437 62.4955 18.2677C62.0103 17.8796 61.3432 17.6855 60.4942 17.6855C59.1236 17.6855 58.4383 18.6619 58.4383 20.6147C58.4383 21.7548 58.6748 22.713 59.1479 23.4893C59.6209 24.2534 60.3001 24.6355 61.1855 24.6355ZM79.3623 26H75.9055V24.1079L73.595 26.0364C73.3402 26.1334 73.0067 26.1819 72.5943 26.1819C71.7695 26.1819 71.1146 25.9333 70.6294 25.436C70.1442 24.9266 69.9017 24.2413 69.9017 23.3801V19.0319L68.2824 18.0858V17.5218L71.3935 15.9935H72.0849V22.4705C72.0849 23.1375 72.188 23.6045 72.3942 23.8714C72.6004 24.1382 72.9703 24.2716 73.504 24.2716C73.88 24.2716 74.2499 24.2049 74.6138 24.0715C74.9777 23.9259 75.4082 23.647 75.9055 23.2346V19.0319L74.2863 18.0858V17.5218L77.3974 15.9935H78.0888V24.6355L79.7262 25.2723L79.3623 26ZM94.2304 15.9208L93.6846 16.1027L91.2649 12.5186H89.0453V24.6173L90.9556 25.2723L90.5917 26H85.0609V25.436L86.7711 24.0897V12.5186H84.606L82.1863 16.1027L81.6405 15.9208V11.3724L82.6229 11.6999H93.248L94.2304 11.3724V15.9208ZM100.701 26.0364C100.216 26.1334 99.6341 26.1819 98.9549 26.1819C98.1544 26.1819 97.4327 25.9757 96.7899 25.5634C96.1592 25.1388 95.6619 24.5688 95.298 23.8532C94.9463 23.1375 94.7704 22.3492 94.7704 21.488C94.7704 20.5541 95.0554 19.6808 95.6255 18.8681C96.1956 18.0434 96.9051 17.3884 97.7541 16.9032C98.6153 16.4059 99.4461 16.1573 100.247 16.1573C101.399 16.1573 102.29 16.6121 102.921 17.5218C103.564 18.4315 103.885 19.6323 103.885 21.1241H97.1537C97.2265 22.1551 97.5055 22.9981 97.9906 23.653C98.4879 24.308 99.1611 24.6355 100.01 24.6355C100.799 24.6355 101.92 24.023 103.376 22.7979L103.922 23.4893L100.701 26.0364ZM99.1914 17.6855C97.8815 17.6855 97.1962 18.5831 97.1356 20.3782H101.393C101.284 19.7232 101.168 19.2259 101.047 18.8863C100.938 18.5346 100.738 18.2495 100.447 18.0312C100.168 17.8008 99.7494 17.6855 99.1914 17.6855ZM111.574 16.1573C112.071 16.1573 112.647 16.2301 113.302 16.3756C113.969 16.509 114.448 16.6606 114.739 16.8305V19.6323H114.048C113.575 19.0258 113.029 18.5528 112.41 18.2132C111.804 17.8614 111.173 17.6855 110.518 17.6855C109.96 17.6855 109.536 17.9342 109.245 18.4315C108.966 18.9288 108.826 19.6565 108.826 20.6147C108.826 21.7548 109.075 22.713 109.572 23.4893C110.07 24.2534 110.779 24.6355 111.701 24.6355C112.392 24.6355 113.375 24.1382 114.648 23.1436L115.194 23.835L112.392 26.0364C111.907 26.1334 111.325 26.1819 110.646 26.1819C109.845 26.1819 109.123 25.9757 108.481 25.5634C107.85 25.1388 107.353 24.5688 106.989 23.8532C106.637 23.1375 106.461 22.3492 106.461 21.488C106.461 20.5541 106.722 19.6747 107.243 18.8499C107.777 18.0252 108.444 17.3702 109.245 16.885C110.045 16.3999 110.822 16.1573 111.574 16.1573ZM128.244 26H124.787V19.8688C124.787 19.2017 124.684 18.7347 124.478 18.4679C124.272 18.201 123.902 18.0676 123.368 18.0676C122.968 18.0676 122.568 18.1404 122.167 18.2859C121.779 18.4315 121.318 18.7105 120.785 19.1228V24.6355L122.422 25.2723L122.058 26H116.982V25.436L118.601 24.1625V12.9734L116.982 11.8454V11.2814L120.093 10.117H120.785V18.2677L123.277 16.3028C123.532 16.2058 123.865 16.1573 124.278 16.1573C125.103 16.1573 125.758 16.412 126.243 16.9214C126.728 17.4187 126.97 18.0979 126.97 18.9591V24.6355L128.608 25.2723L128.244 26ZM154.306 13.501L149.94 25.4178L148.048 26.3457L145.155 17.7765L142.444 25.4178L140.552 26.3457L135.876 13.4646L134.148 12.4276L134.512 11.6999H139.497V12.2639L138.169 13.2645L141.953 23.9259L144.664 16.3574L143.681 13.4465L142.008 12.4276L142.372 11.6999H147.72V12.2639L146.101 13.5192L149.485 23.8895L153.233 13.5192L149.995 12.4276L150.358 11.6999H155.889V12.2639L154.306 13.501ZM161.643 26.0364C161.158 26.1334 160.575 26.1819 159.896 26.1819C159.096 26.1819 158.374 25.9757 157.731 25.5634C157.1 25.1388 156.603 24.5688 156.239 23.8532C155.888 23.1375 155.712 22.3492 155.712 21.488C155.712 20.5541 155.997 19.6808 156.567 18.8681C157.137 18.0434 157.846 17.3884 158.695 16.9032C159.557 16.4059 160.387 16.1573 161.188 16.1573C162.34 16.1573 163.232 16.6121 163.862 17.5218C164.505 18.4315 164.827 19.6323 164.827 21.1241H158.095C158.168 22.1551 158.447 22.9981 158.932 23.653C159.429 24.308 160.102 24.6355 160.951 24.6355C161.74 24.6355 162.862 24.023 164.317 22.7979L164.863 23.4893L161.643 26.0364ZM160.133 17.6855C158.823 17.6855 158.137 18.5831 158.077 20.3782H162.334C162.225 19.7232 162.11 19.2259 161.988 18.8863C161.879 18.5346 161.679 18.2495 161.388 18.0312C161.109 17.8008 160.691 17.6855 160.133 17.6855ZM171.842 26H166.766V25.436L168.385 24.1625V12.9734L166.766 11.8454V11.2814L169.877 10.117H170.568V24.6355L172.206 25.2723L171.842 26ZM178.558 26H173.482V25.436L175.101 24.1625V12.9734L173.482 11.8454V11.2814L176.593 10.117H177.284V24.6355L178.922 25.2723L178.558 26ZM191.823 26.0182H188.367V19.887C188.367 19.2199 188.263 18.7529 188.057 18.4861C187.851 18.2192 187.481 18.0858 186.947 18.0858C186.547 18.0858 186.147 18.1586 185.747 18.3041C185.359 18.4497 184.898 18.7286 184.364 19.141V24.6537L186.001 25.2905L185.637 26.0182H180.561V25.4542L182.181 24.1806V19.0319L180.561 18.0858V17.5218L183.673 15.9935L184.273 18.3587L186.856 16.3028C187.111 16.2058 187.445 16.1573 187.857 16.1573C188.682 16.1573 189.337 16.412 189.822 16.9214C190.307 17.4187 190.55 18.0979 190.55 18.9591V24.6355L192.187 25.2905L191.823 26.0182ZM199.842 26.0364C199.357 26.1334 198.775 26.1819 198.096 26.1819C197.295 26.1819 196.573 25.9757 195.93 25.5634C195.3 25.1388 194.802 24.5688 194.439 23.8532C194.087 23.1375 193.911 22.3492 193.911 21.488C193.911 20.5541 194.196 19.6808 194.766 18.8681C195.336 18.0434 196.046 17.3884 196.895 16.9032C197.756 16.4059 198.587 16.1573 199.387 16.1573C200.54 16.1573 201.431 16.6121 202.062 17.5218C202.705 18.4315 203.026 19.6323 203.026 21.1241H196.294C196.367 22.1551 196.646 22.9981 197.131 23.653C197.629 24.308 198.302 24.6355 199.151 24.6355C199.939 24.6355 201.061 24.023 202.517 22.7979L203.062 23.4893L199.842 26.0364ZM198.332 17.6855C197.022 17.6855 196.337 18.5831 196.276 20.3782H200.533C200.424 19.7232 200.309 19.2259 200.188 18.8863C200.079 18.5346 199.878 18.2495 199.587 18.0312C199.308 17.8008 198.89 17.6855 198.332 17.6855ZM211.187 24.0351C211.187 23.6955 210.999 23.3862 210.623 23.1072C210.247 22.8161 209.671 22.4705 208.895 22.0702C208.264 21.7427 207.755 21.4577 207.367 21.2151C206.978 20.9725 206.645 20.6935 206.366 20.3782C206.099 20.0507 205.966 19.699 205.966 19.323C205.966 18.8863 206.148 18.4194 206.511 17.9221C206.875 17.4248 207.324 17.0063 207.858 16.6667C208.391 16.3271 208.889 16.1573 209.35 16.1573C209.908 16.1573 210.55 16.2301 211.278 16.3756C212.018 16.509 212.552 16.6606 212.879 16.8305V19.6323H212.188C211.8 18.8803 211.351 18.2981 210.842 17.8857C210.332 17.4612 209.811 17.2489 209.277 17.2489C208.901 17.2489 208.598 17.352 208.367 17.5582C208.137 17.7523 208.022 18.0009 208.022 18.3041C208.022 18.6801 208.216 19.0197 208.604 19.323C209.004 19.6141 209.604 19.9597 210.405 20.36C211.023 20.6754 211.521 20.9483 211.897 21.1787C212.273 21.4092 212.588 21.6821 212.843 21.9974C213.11 22.3006 213.243 22.6403 213.243 23.0163C213.243 23.465 213.049 23.9381 212.661 24.4354C212.285 24.9205 211.818 25.3329 211.26 25.6725C210.714 26.0121 210.211 26.1819 209.75 26.1819C209.156 26.1819 208.446 26.1152 207.621 25.9818C206.809 25.8363 206.226 25.6786 205.875 25.5088V22.707H206.566C206.991 23.459 207.494 24.0472 208.076 24.4717C208.658 24.8841 209.247 25.0903 209.841 25.0903C210.241 25.0903 210.563 24.9872 210.805 24.781C211.06 24.5748 211.187 24.3262 211.187 24.0351ZM221.35 24.0351C221.35 23.6955 221.162 23.3862 220.786 23.1072C220.41 22.8161 219.834 22.4705 219.058 22.0702C218.427 21.7427 217.917 21.4577 217.529 21.2151C217.141 20.9725 216.808 20.6935 216.529 20.3782C216.262 20.0507 216.128 19.699 216.128 19.323C216.128 18.8863 216.31 18.4194 216.674 17.9221C217.038 17.4248 217.487 17.0063 218.021 16.6667C218.554 16.3271 219.052 16.1573 219.512 16.1573C220.07 16.1573 220.713 16.2301 221.441 16.3756C222.181 16.509 222.715 16.6606 223.042 16.8305V19.6323H222.351C221.963 18.8803 221.514 18.2981 221.004 17.8857C220.495 17.4612 219.973 17.2489 219.44 17.2489C219.064 17.2489 218.76 17.352 218.53 17.5582C218.3 17.7523 218.184 18.0009 218.184 18.3041C218.184 18.6801 218.378 19.0197 218.767 19.323C219.167 19.6141 219.767 19.9597 220.568 20.36C221.186 20.6754 221.684 20.9483 222.06 21.1787C222.436 21.4092 222.751 21.6821 223.006 21.9974C223.272 22.3006 223.406 22.6403 223.406 23.0163C223.406 23.465 223.212 23.9381 222.824 24.4354C222.448 24.9205 221.981 25.3329 221.423 25.6725C220.877 26.0121 220.374 26.1819 219.913 26.1819C219.318 26.1819 218.609 26.1152 217.784 25.9818C216.971 25.8363 216.389 25.6786 216.037 25.5088V22.707H216.729C217.153 23.459 217.657 24.0472 218.239 24.4717C218.821 24.8841 219.409 25.0903 220.004 25.0903C220.404 25.0903 220.725 24.9872 220.968 24.781C221.223 24.5748 221.35 24.3262 221.35 24.0351Z" fill="white"/>
<defs>
<clipPath id="clip0_403_257">
<rect width="36" height="36" fill="white"/>
</clipPath>
</defs>
</svg>
