<svg width="224" height="36" viewBox="0 0 224 36" fill="none" xmlns="http://www.w3.org/2000/svg">
<g clip-path="url(#clip0_403_253)">
<path d="M17.9986 5.53472L35.5997 0.349121L30.464 18.0001L35.5997 35.6012L17.9986 30.4655L0.347656 35.6012L5.53325 18.0001L0.347656 0.349121L17.9986 5.53472Z" fill="black"/>
</g>
<path d="M52.0812 25.8588H41.1817V25.2957L42.8893 23.9514V12.9429L41 12.3071L41.3633 11.5804H51.8996L52.8805 11.2534V15.4316L52.3355 15.6133L50.1738 12.3979H45.16V18.1565H48.012L49.3382 15.8313H49.9013V21.3537L49.1747 21.717L48.0302 18.974H45.16V25.0414H50.1011L52.5172 21.4627L53.0622 21.6443V26.1858L52.0812 25.8588ZM66.8583 25.8588H63.4068V24.5509L61.7174 25.8952C61.3298 25.9921 60.8636 26.0405 60.3186 26.0405C59.5193 26.0405 58.7987 25.8346 58.1569 25.4229C57.5271 24.999 57.0306 24.4298 56.6673 23.7153C56.316 23.0007 56.1404 22.2136 56.1404 21.3537C56.1404 20.4212 56.425 19.5492 56.9942 18.7378C57.5634 17.9143 58.2719 17.2603 59.1197 16.7759C59.9795 16.2793 60.8091 16.0311 61.6084 16.0311C62.2745 16.0311 62.88 16.2188 63.425 16.5942V12.852L61.8082 11.7258V11.1626L64.9146 10H65.6049V24.4964L67.2217 25.1322L66.8583 25.8588ZM61.2451 24.4964C61.6084 24.4964 61.9535 24.448 62.2805 24.3511C62.6196 24.2421 62.995 24.0423 63.4068 23.7516V19.6098C63.3341 19.0042 63.0495 18.5138 62.553 18.1383C62.0686 17.7508 61.4025 17.557 60.5548 17.557C59.1863 17.557 58.502 18.5319 58.502 20.4817C58.502 21.6201 58.7382 22.5769 59.2105 23.3519C59.6828 24.1149 60.361 24.4964 61.2451 24.4964ZM79.3942 25.8588H75.9427V23.9696L73.6356 25.8952C73.3813 25.9921 73.0483 26.0405 72.6365 26.0405C71.813 26.0405 71.159 25.7922 70.6746 25.2957C70.1902 24.7871 69.948 24.1028 69.948 23.2429V18.9013L68.3312 17.9567V17.3935L71.4376 15.8676H72.1279V22.3347C72.1279 23.0007 72.2308 23.467 72.4367 23.7334C72.6426 23.9999 73.0119 24.1331 73.5448 24.1331C73.9202 24.1331 74.2896 24.0665 74.6529 23.9333C75.0163 23.7879 75.4462 23.5094 75.9427 23.0976V18.9013L74.3259 17.9567V17.3935L77.4323 15.8676H78.1226V24.4964L79.7576 25.1322L79.3942 25.8588ZM94.2398 15.7949L93.6948 15.9766L91.2787 12.3979H89.0625V24.4782L90.9699 25.1322L90.6066 25.8588H85.0841V25.2957L86.7917 23.9514V12.3979H84.63L82.2139 15.9766L81.6689 15.7949V11.2534L82.6499 11.5804H93.2588L94.2398 11.2534V15.7949ZM100.701 25.8952C100.217 25.9921 99.6353 26.0405 98.9571 26.0405C98.1578 26.0405 97.4372 25.8346 96.7953 25.4229C96.1656 24.999 95.669 24.4298 95.3057 23.7153C94.9545 23.0007 94.7789 22.2136 94.7789 21.3537C94.7789 20.4212 95.0635 19.5492 95.6327 18.7378C96.2019 17.9143 96.9104 17.2603 97.7581 16.7759C98.618 16.2793 99.4476 16.0311 100.247 16.0311C101.397 16.0311 102.287 16.4852 102.917 17.3935C103.559 18.3018 103.88 19.5008 103.88 20.9904H97.1587C97.2313 22.0198 97.5099 22.8615 97.9943 23.5154C98.4908 24.1694 99.163 24.4964 100.011 24.4964C100.798 24.4964 101.918 23.8848 103.371 22.6616L103.916 23.3519L100.701 25.8952ZM99.1932 17.557C97.8853 17.557 97.201 18.4532 97.1405 20.2456H101.391C101.282 19.5916 101.167 19.0951 101.046 18.756C100.937 18.4048 100.737 18.1202 100.447 17.9022C100.168 17.6721 99.7503 17.557 99.1932 17.557ZM111.557 16.0311C112.053 16.0311 112.628 16.1037 113.282 16.2491C113.948 16.3823 114.427 16.5337 114.717 16.7032V19.5008H114.027C113.555 18.8952 113.01 18.4229 112.392 18.0838C111.787 17.7326 111.157 17.557 110.503 17.557C109.946 17.557 109.522 17.8053 109.231 18.3018C108.953 18.7984 108.814 19.525 108.814 20.4817C108.814 21.6201 109.062 22.5769 109.558 23.3519C110.055 24.1149 110.763 24.4964 111.684 24.4964C112.374 24.4964 113.355 23.9999 114.627 23.0068L115.172 23.6971L112.374 25.8952C111.89 25.9921 111.308 26.0405 110.63 26.0405C109.831 26.0405 109.11 25.8346 108.468 25.4229C107.839 24.999 107.342 24.4298 106.979 23.7153C106.628 23.0007 106.452 22.2136 106.452 21.3537C106.452 20.4212 106.712 19.5432 107.233 18.7196C107.766 17.8961 108.432 17.2421 109.231 16.7577C110.031 16.2733 110.806 16.0311 111.557 16.0311ZM128.202 25.8588H124.75V19.7369C124.75 19.0708 124.647 18.6046 124.441 18.3381C124.235 18.0717 123.866 17.9385 123.333 17.9385C122.934 17.9385 122.534 18.0112 122.134 18.1565C121.747 18.3018 121.286 18.5804 120.754 18.9921V24.4964L122.389 25.1322L122.025 25.8588H116.957V25.2957L118.574 24.0241V12.852L116.957 11.7258V11.1626L120.063 10H120.754V18.1383L123.242 16.1764C123.497 16.0795 123.83 16.0311 124.241 16.0311C125.065 16.0311 125.719 16.2854 126.203 16.7941C126.688 17.2906 126.93 17.9688 126.93 18.8286V24.4964L128.565 25.1322L128.202 25.8588ZM154.225 13.3789L149.865 25.2775L147.976 26.204L145.087 17.6478L142.38 25.2775L140.491 26.204L135.823 13.3425L134.097 12.3071L134.46 11.5804H139.438V12.1436L138.111 13.1427L141.89 23.7879L144.597 16.2309L143.616 13.3244L141.944 12.3071L142.308 11.5804H147.649V12.1436L146.032 13.397L149.411 23.7516L153.153 13.397L149.919 12.3071L150.283 11.5804H155.805V12.1436L154.225 13.3789ZM161.55 25.8952C161.065 25.9921 160.484 26.0405 159.806 26.0405C159.007 26.0405 158.286 25.8346 157.644 25.4229C157.014 24.999 156.518 24.4298 156.154 23.7153C155.803 23.0007 155.628 22.2136 155.628 21.3537C155.628 20.4212 155.912 19.5492 156.481 18.7378C157.051 17.9143 157.759 17.2603 158.607 16.7759C159.467 16.2793 160.296 16.0311 161.096 16.0311C162.246 16.0311 163.136 16.4852 163.766 17.3935C164.408 18.3018 164.729 19.5008 164.729 20.9904H158.007C158.08 22.0198 158.359 22.8615 158.843 23.5154C159.34 24.1694 160.012 24.4964 160.859 24.4964C161.647 24.4964 162.767 23.8848 164.22 22.6616L164.765 23.3519L161.55 25.8952ZM160.042 17.557C158.734 17.557 158.05 18.4532 157.989 20.2456H162.24C162.131 19.5916 162.016 19.0951 161.895 18.756C161.786 18.4048 161.586 18.1202 161.295 17.9022C161.017 17.6721 160.599 17.557 160.042 17.557ZM171.733 25.8588H166.665V25.2957L168.282 24.0241V12.852L166.665 11.7258V11.1626L169.771 10H170.462V24.4964L172.096 25.1322L171.733 25.8588ZM178.439 25.8588H173.371V25.2957L174.987 24.0241V12.852L173.371 11.7258V11.1626L176.477 10H177.167V24.4964L178.802 25.1322L178.439 25.8588ZM191.684 25.877H188.233V19.7551C188.233 19.089 188.13 18.6227 187.924 18.3563C187.718 18.0899 187.349 17.9567 186.816 17.9567C186.416 17.9567 186.017 18.0293 185.617 18.1747C185.229 18.32 184.769 18.5985 184.236 19.0103V24.5146L185.871 25.1504L185.508 25.877H180.44V25.3139L182.057 24.0422V18.9013L180.44 17.9567V17.3935L183.546 15.8676L184.146 18.2292L186.725 16.1764C186.979 16.0795 187.312 16.0311 187.724 16.0311C188.548 16.0311 189.202 16.2854 189.686 16.7941C190.171 17.2906 190.413 17.9688 190.413 18.8286V24.4964L192.048 25.1504L191.684 25.877ZM199.691 25.8952C199.207 25.9921 198.625 26.0405 197.947 26.0405C197.148 26.0405 196.427 25.8346 195.785 25.4229C195.156 24.999 194.659 24.4298 194.296 23.7153C193.945 23.0007 193.769 22.2136 193.769 21.3537C193.769 20.4212 194.054 19.5492 194.623 18.7378C195.192 17.9143 195.9 17.2603 196.748 16.7759C197.608 16.2793 198.438 16.0311 199.237 16.0311C200.387 16.0311 201.278 16.4852 201.907 17.3935C202.549 18.3018 202.87 19.5008 202.87 20.9904H196.149C196.221 22.0198 196.5 22.8615 196.984 23.5154C197.481 24.1694 198.153 24.4964 199.001 24.4964C199.788 24.4964 200.908 23.8848 202.361 22.6616L202.906 23.3519L199.691 25.8952ZM198.183 17.557C196.875 17.557 196.191 18.4532 196.131 20.2456H200.381C200.272 19.5916 200.157 19.0951 200.036 18.756C199.927 18.4048 199.727 18.1202 199.437 17.9022C199.158 17.6721 198.74 17.557 198.183 17.557ZM211.019 23.8969C211.019 23.5578 210.831 23.249 210.456 22.9705C210.08 22.6798 209.505 22.3347 208.73 21.935C208.1 21.608 207.592 21.3234 207.204 21.0812C206.817 20.839 206.484 20.5604 206.205 20.2456C205.939 19.9186 205.805 19.5674 205.805 19.192C205.805 18.756 205.987 18.2897 206.35 17.7932C206.714 17.2966 207.162 16.8788 207.695 16.5397C208.227 16.2006 208.724 16.0311 209.184 16.0311C209.741 16.0311 210.383 16.1037 211.11 16.2491C211.849 16.3823 212.381 16.5337 212.708 16.7032V19.5008H212.018C211.631 18.7499 211.182 18.1686 210.674 17.7568C210.165 17.333 209.644 17.121 209.112 17.121C208.736 17.121 208.433 17.224 208.203 17.4299C207.973 17.6236 207.858 17.8719 207.858 18.1747C207.858 18.5501 208.052 18.8892 208.439 19.192C208.839 19.4826 209.439 19.8278 210.238 20.2274C210.855 20.5423 211.352 20.8148 211.727 21.0449C212.103 21.275 212.418 21.5475 212.672 21.8623C212.938 22.1651 213.072 22.5042 213.072 22.8796C213.072 23.3277 212.878 23.8 212.49 24.2966C212.115 24.781 211.649 25.1928 211.092 25.5319C210.547 25.871 210.044 26.0405 209.584 26.0405C208.99 26.0405 208.282 25.9739 207.458 25.8407C206.647 25.6953 206.066 25.5379 205.714 25.3684V22.5708H206.405C206.829 23.3217 207.331 23.909 207.913 24.3329C208.494 24.7447 209.081 24.9505 209.675 24.9505C210.074 24.9505 210.395 24.8476 210.637 24.6417C210.892 24.4358 211.019 24.1876 211.019 23.8969ZM221.166 23.8969C221.166 23.5578 220.979 23.249 220.603 22.9705C220.228 22.6798 219.652 22.3347 218.877 21.935C218.248 21.608 217.739 21.3234 217.351 21.0812C216.964 20.839 216.631 20.5604 216.352 20.2456C216.086 19.9186 215.953 19.5674 215.953 19.192C215.953 18.756 216.134 18.2897 216.498 17.7932C216.861 17.2966 217.309 16.8788 217.842 16.5397C218.375 16.2006 218.871 16.0311 219.332 16.0311C219.889 16.0311 220.53 16.1037 221.257 16.2491C221.996 16.3823 222.529 16.5337 222.856 16.7032V19.5008H222.165C221.778 18.7499 221.33 18.1686 220.821 17.7568C220.312 17.333 219.792 17.121 219.259 17.121C218.883 17.121 218.581 17.224 218.351 17.4299C218.12 17.6236 218.005 17.8719 218.005 18.1747C218.005 18.5501 218.199 18.8892 218.587 19.192C218.986 19.4826 219.586 19.8278 220.385 20.2274C221.003 20.5423 221.499 20.8148 221.875 21.0449C222.25 21.275 222.565 21.5475 222.819 21.8623C223.086 22.1651 223.219 22.5042 223.219 22.8796C223.219 23.3277 223.025 23.8 222.638 24.2966C222.262 24.781 221.796 25.1928 221.239 25.5319C220.694 25.871 220.191 26.0405 219.731 26.0405C219.138 26.0405 218.429 25.9739 217.606 25.8407C216.794 25.6953 216.213 25.5379 215.862 25.3684V22.5708H216.552C216.976 23.3217 217.479 23.909 218.06 24.3329C218.641 24.7447 219.229 24.9505 219.822 24.9505C220.222 24.9505 220.543 24.8476 220.785 24.6417C221.039 24.4358 221.166 24.1876 221.166 23.8969Z" fill="black"/>
<path d="M52.0812 25.8588H41.1817V25.2957L42.8893 23.9514V12.9429L41 12.3071L41.3633 11.5804H51.8996L52.8805 11.2534V15.4316L52.3355 15.6133L50.1738 12.3979H45.16V18.1565H48.012L49.3382 15.8313H49.9013V21.3537L49.1747 21.717L48.0302 18.974H45.16V25.0414H50.1011L52.5172 21.4627L53.0622 21.6443V26.1858L52.0812 25.8588ZM66.8583 25.8588H63.4068V24.5509L61.7174 25.8952C61.3298 25.9921 60.8636 26.0405 60.3186 26.0405C59.5193 26.0405 58.7987 25.8346 58.1569 25.4229C57.5271 24.999 57.0306 24.4298 56.6673 23.7153C56.316 23.0007 56.1404 22.2136 56.1404 21.3537C56.1404 20.4212 56.425 19.5492 56.9942 18.7378C57.5634 17.9143 58.2719 17.2603 59.1197 16.7759C59.9795 16.2793 60.8091 16.0311 61.6084 16.0311C62.2745 16.0311 62.88 16.2188 63.425 16.5942V12.852L61.8082 11.7258V11.1626L64.9146 10H65.6049V24.4964L67.2217 25.1322L66.8583 25.8588ZM61.2451 24.4964C61.6084 24.4964 61.9535 24.448 62.2805 24.3511C62.6196 24.2421 62.995 24.0423 63.4068 23.7516V19.6098C63.3341 19.0042 63.0495 18.5138 62.553 18.1383C62.0686 17.7508 61.4025 17.557 60.5548 17.557C59.1863 17.557 58.502 18.5319 58.502 20.4817C58.502 21.6201 58.7382 22.5769 59.2105 23.3519C59.6828 24.1149 60.361 24.4964 61.2451 24.4964ZM79.3942 25.8588H75.9427V23.9696L73.6356 25.8952C73.3813 25.9921 73.0483 26.0405 72.6365 26.0405C71.813 26.0405 71.159 25.7922 70.6746 25.2957C70.1902 24.7871 69.948 24.1028 69.948 23.2429V18.9013L68.3312 17.9567V17.3935L71.4376 15.8676H72.1279V22.3347C72.1279 23.0007 72.2308 23.467 72.4367 23.7334C72.6426 23.9999 73.0119 24.1331 73.5448 24.1331C73.9202 24.1331 74.2896 24.0665 74.6529 23.9333C75.0163 23.7879 75.4462 23.5094 75.9427 23.0976V18.9013L74.3259 17.9567V17.3935L77.4323 15.8676H78.1226V24.4964L79.7576 25.1322L79.3942 25.8588ZM94.2398 15.7949L93.6948 15.9766L91.2787 12.3979H89.0625V24.4782L90.9699 25.1322L90.6066 25.8588H85.0841V25.2957L86.7917 23.9514V12.3979H84.63L82.2139 15.9766L81.6689 15.7949V11.2534L82.6499 11.5804H93.2588L94.2398 11.2534V15.7949ZM100.701 25.8952C100.217 25.9921 99.6353 26.0405 98.9571 26.0405C98.1578 26.0405 97.4372 25.8346 96.7953 25.4229C96.1656 24.999 95.669 24.4298 95.3057 23.7153C94.9545 23.0007 94.7789 22.2136 94.7789 21.3537C94.7789 20.4212 95.0635 19.5492 95.6327 18.7378C96.2019 17.9143 96.9104 17.2603 97.7581 16.7759C98.618 16.2793 99.4476 16.0311 100.247 16.0311C101.397 16.0311 102.287 16.4852 102.917 17.3935C103.559 18.3018 103.88 19.5008 103.88 20.9904H97.1587C97.2313 22.0198 97.5099 22.8615 97.9943 23.5154C98.4908 24.1694 99.163 24.4964 100.011 24.4964C100.798 24.4964 101.918 23.8848 103.371 22.6616L103.916 23.3519L100.701 25.8952ZM99.1932 17.557C97.8853 17.557 97.201 18.4532 97.1405 20.2456H101.391C101.282 19.5916 101.167 19.0951 101.046 18.756C100.937 18.4048 100.737 18.1202 100.447 17.9022C100.168 17.6721 99.7503 17.557 99.1932 17.557ZM111.557 16.0311C112.053 16.0311 112.628 16.1037 113.282 16.2491C113.948 16.3823 114.427 16.5337 114.717 16.7032V19.5008H114.027C113.555 18.8952 113.01 18.4229 112.392 18.0838C111.787 17.7326 111.157 17.557 110.503 17.557C109.946 17.557 109.522 17.8053 109.231 18.3018C108.953 18.7984 108.814 19.525 108.814 20.4817C108.814 21.6201 109.062 22.5769 109.558 23.3519C110.055 24.1149 110.763 24.4964 111.684 24.4964C112.374 24.4964 113.355 23.9999 114.627 23.0068L115.172 23.6971L112.374 25.8952C111.89 25.9921 111.308 26.0405 110.63 26.0405C109.831 26.0405 109.11 25.8346 108.468 25.4229C107.839 24.999 107.342 24.4298 106.979 23.7153C106.628 23.0007 106.452 22.2136 106.452 21.3537C106.452 20.4212 106.712 19.5432 107.233 18.7196C107.766 17.8961 108.432 17.2421 109.231 16.7577C110.031 16.2733 110.806 16.0311 111.557 16.0311ZM128.202 25.8588H124.75V19.7369C124.75 19.0708 124.647 18.6046 124.441 18.3381C124.235 18.0717 123.866 17.9385 123.333 17.9385C122.934 17.9385 122.534 18.0112 122.134 18.1565C121.747 18.3018 121.286 18.5804 120.754 18.9921V24.4964L122.389 25.1322L122.025 25.8588H116.957V25.2957L118.574 24.0241V12.852L116.957 11.7258V11.1626L120.063 10H120.754V18.1383L123.242 16.1764C123.497 16.0795 123.83 16.0311 124.241 16.0311C125.065 16.0311 125.719 16.2854 126.203 16.7941C126.688 17.2906 126.93 17.9688 126.93 18.8286V24.4964L128.565 25.1322L128.202 25.8588ZM154.225 13.3789L149.865 25.2775L147.976 26.204L145.087 17.6478L142.38 25.2775L140.491 26.204L135.823 13.3425L134.097 12.3071L134.46 11.5804H139.438V12.1436L138.111 13.1427L141.89 23.7879L144.597 16.2309L143.616 13.3244L141.944 12.3071L142.308 11.5804H147.649V12.1436L146.032 13.397L149.411 23.7516L153.153 13.397L149.919 12.3071L150.283 11.5804H155.805V12.1436L154.225 13.3789ZM161.55 25.8952C161.065 25.9921 160.484 26.0405 159.806 26.0405C159.007 26.0405 158.286 25.8346 157.644 25.4229C157.014 24.999 156.518 24.4298 156.154 23.7153C155.803 23.0007 155.628 22.2136 155.628 21.3537C155.628 20.4212 155.912 19.5492 156.481 18.7378C157.051 17.9143 157.759 17.2603 158.607 16.7759C159.467 16.2793 160.296 16.0311 161.096 16.0311C162.246 16.0311 163.136 16.4852 163.766 17.3935C164.408 18.3018 164.729 19.5008 164.729 20.9904H158.007C158.08 22.0198 158.359 22.8615 158.843 23.5154C159.34 24.1694 160.012 24.4964 160.859 24.4964C161.647 24.4964 162.767 23.8848 164.22 22.6616L164.765 23.3519L161.55 25.8952ZM160.042 17.557C158.734 17.557 158.05 18.4532 157.989 20.2456H162.24C162.131 19.5916 162.016 19.0951 161.895 18.756C161.786 18.4048 161.586 18.1202 161.295 17.9022C161.017 17.6721 160.599 17.557 160.042 17.557ZM171.733 25.8588H166.665V25.2957L168.282 24.0241V12.852L166.665 11.7258V11.1626L169.771 10H170.462V24.4964L172.096 25.1322L171.733 25.8588ZM178.439 25.8588H173.371V25.2957L174.987 24.0241V12.852L173.371 11.7258V11.1626L176.477 10H177.167V24.4964L178.802 25.1322L178.439 25.8588ZM191.684 25.877H188.233V19.7551C188.233 19.089 188.13 18.6227 187.924 18.3563C187.718 18.0899 187.349 17.9567 186.816 17.9567C186.416 17.9567 186.017 18.0293 185.617 18.1747C185.229 18.32 184.769 18.5985 184.236 19.0103V24.5146L185.871 25.1504L185.508 25.877H180.44V25.3139L182.057 24.0422V18.9013L180.44 17.9567V17.3935L183.546 15.8676L184.146 18.2292L186.725 16.1764C186.979 16.0795 187.312 16.0311 187.724 16.0311C188.548 16.0311 189.202 16.2854 189.686 16.7941C190.171 17.2906 190.413 17.9688 190.413 18.8286V24.4964L192.048 25.1504L191.684 25.877ZM199.691 25.8952C199.207 25.9921 198.625 26.0405 197.947 26.0405C197.148 26.0405 196.427 25.8346 195.785 25.4229C195.156 24.999 194.659 24.4298 194.296 23.7153C193.945 23.0007 193.769 22.2136 193.769 21.3537C193.769 20.4212 194.054 19.5492 194.623 18.7378C195.192 17.9143 195.9 17.2603 196.748 16.7759C197.608 16.2793 198.438 16.0311 199.237 16.0311C200.387 16.0311 201.278 16.4852 201.907 17.3935C202.549 18.3018 202.87 19.5008 202.87 20.9904H196.149C196.221 22.0198 196.5 22.8615 196.984 23.5154C197.481 24.1694 198.153 24.4964 199.001 24.4964C199.788 24.4964 200.908 23.8848 202.361 22.6616L202.906 23.3519L199.691 25.8952ZM198.183 17.557C196.875 17.557 196.191 18.4532 196.131 20.2456H200.381C200.272 19.5916 200.157 19.0951 200.036 18.756C199.927 18.4048 199.727 18.1202 199.437 17.9022C199.158 17.6721 198.74 17.557 198.183 17.557ZM211.019 23.8969C211.019 23.5578 210.831 23.249 210.456 22.9705C210.08 22.6798 209.505 22.3347 208.73 21.935C208.1 21.608 207.592 21.3234 207.204 21.0812C206.817 20.839 206.484 20.5604 206.205 20.2456C205.939 19.9186 205.805 19.5674 205.805 19.192C205.805 18.756 205.987 18.2897 206.35 17.7932C206.714 17.2966 207.162 16.8788 207.695 16.5397C208.227 16.2006 208.724 16.0311 209.184 16.0311C209.741 16.0311 210.383 16.1037 211.11 16.2491C211.849 16.3823 212.381 16.5337 212.708 16.7032V19.5008H212.018C211.631 18.7499 211.182 18.1686 210.674 17.7568C210.165 17.333 209.644 17.121 209.112 17.121C208.736 17.121 208.433 17.224 208.203 17.4299C207.973 17.6236 207.858 17.8719 207.858 18.1747C207.858 18.5501 208.052 18.8892 208.439 19.192C208.839 19.4826 209.439 19.8278 210.238 20.2274C210.855 20.5423 211.352 20.8148 211.727 21.0449C212.103 21.275 212.418 21.5475 212.672 21.8623C212.938 22.1651 213.072 22.5042 213.072 22.8796C213.072 23.3277 212.878 23.8 212.49 24.2966C212.115 24.781 211.649 25.1928 211.092 25.5319C210.547 25.871 210.044 26.0405 209.584 26.0405C208.99 26.0405 208.282 25.9739 207.458 25.8407C206.647 25.6953 206.066 25.5379 205.714 25.3684V22.5708H206.405C206.829 23.3217 207.331 23.909 207.913 24.3329C208.494 24.7447 209.081 24.9505 209.675 24.9505C210.074 24.9505 210.395 24.8476 210.637 24.6417C210.892 24.4358 211.019 24.1876 211.019 23.8969ZM221.166 23.8969C221.166 23.5578 220.979 23.249 220.603 22.9705C220.228 22.6798 219.652 22.3347 218.877 21.935C218.248 21.608 217.739 21.3234 217.351 21.0812C216.964 20.839 216.631 20.5604 216.352 20.2456C216.086 19.9186 215.953 19.5674 215.953 19.192C215.953 18.756 216.134 18.2897 216.498 17.7932C216.861 17.2966 217.309 16.8788 217.842 16.5397C218.375 16.2006 218.871 16.0311 219.332 16.0311C219.889 16.0311 220.53 16.1037 221.257 16.2491C221.996 16.3823 222.529 16.5337 222.856 16.7032V19.5008H222.165C221.778 18.7499 221.33 18.1686 220.821 17.7568C220.312 17.333 219.792 17.121 219.259 17.121C218.883 17.121 218.581 17.224 218.351 17.4299C218.12 17.6236 218.005 17.8719 218.005 18.1747C218.005 18.5501 218.199 18.8892 218.587 19.192C218.986 19.4826 219.586 19.8278 220.385 20.2274C221.003 20.5423 221.499 20.8148 221.875 21.0449C222.25 21.275 222.565 21.5475 222.819 21.8623C223.086 22.1651 223.219 22.5042 223.219 22.8796C223.219 23.3277 223.025 23.8 222.638 24.2966C222.262 24.781 221.796 25.1928 221.239 25.5319C220.694 25.871 220.191 26.0405 219.731 26.0405C219.138 26.0405 218.429 25.9739 217.606 25.8407C216.794 25.6953 216.213 25.5379 215.862 25.3684V22.5708H216.552C216.976 23.3217 217.479 23.909 218.06 24.3329C218.641 24.7447 219.229 24.9505 219.822 24.9505C220.222 24.9505 220.543 24.8476 220.785 24.6417C221.039 24.4358 221.166 24.1876 221.166 23.8969Z" fill="black" fill-opacity="0.2"/>
<defs>
<clipPath id="clip0_403_253">
<rect width="36" height="36" fill="white"/>
</clipPath>
</defs>
</svg>
